<?xml version="1.0" encoding="utf-8"?>
<!-- Generator: Adobe Illustrator 19.2.1, SVG Export Plug-In . SVG Version: 6.00 Build 0)  -->
<svg version="1.1" id="layer" xmlns="http://www.w3.org/2000/svg" xmlns:xlink="http://www.w3.org/1999/xlink" x="0px" y="0px"
	 viewBox="0 0 652 652" style="enable-background:new 0 0 652 652;" xml:space="preserve">
<style type="text/css">
	.st0{clip-path:url(#SVGID_2_);fill:url(#SVGID_3_);}
	.st1{clip-path:url(#SVGID_5_);fill:url(#SVGID_6_);}
	.st2{clip-path:url(#SVGID_8_);fill:url(#SVGID_9_);}
	.st3{clip-path:url(#SVGID_11_);fill:url(#SVGID_12_);}
	.st4{clip-path:url(#SVGID_14_);fill:url(#SVGID_15_);}
	.st5{fill:#FFFFFF;}
	.st6{fill:#9C92B8;}
	.st7{fill:#F2544B;}
	.st8{font-family:'Stencil';}
	.st9{font-size:56.2438px;}
	.st10{fill:none;stroke:#C6C0DA;stroke-width:2.2821;}
</style>
<g>
	<defs>
		<rect id="SVGID_1_" x="26.8" y="170.1" width="600" height="311.6"/>
	</defs>
	<clipPath id="SVGID_2_">
		<use xlink:href="#SVGID_1_"  style="overflow:visible;"/>
	</clipPath>
	
		<linearGradient id="SVGID_3_" gradientUnits="userSpaceOnUse" x1="-1156.8999" y1="1398.3667" x2="-12338.1211" y2="1398.2833" gradientTransform="matrix(5.339920e-002 0 0 5.415700e-002 688.5551 250.1962)">
		<stop  offset="0" style="stop-color:#FDE100"/>
		<stop  offset="0.4045" style="stop-color:#FFFFFF"/>
		<stop  offset="1" style="stop-color:#FDE100"/>
	</linearGradient>
	<rect x="26.8" y="170.1" class="st0" width="600" height="311.6"/>
</g>
<g>
	<defs>
		<rect id="SVGID_4_" x="35" y="175.6" width="583.5" height="300.6"/>
	</defs>
	<clipPath id="SVGID_5_">
		<use xlink:href="#SVGID_4_"  style="overflow:visible;"/>
	</clipPath>
	
		<linearGradient id="SVGID_6_" gradientUnits="userSpaceOnUse" x1="-6874.4609" y1="-1311.8909" x2="-6671.8652" y2="4195.9678" gradientTransform="matrix(5.339920e-002 0 0 5.415700e-002 688.5551 250.1962)">
		<stop  offset="0" style="stop-color:#9C92B8"/>
		<stop  offset="0.4045" style="stop-color:#D7D1E2"/>
		<stop  offset="1" style="stop-color:#9C92B8"/>
	</linearGradient>
	<rect x="35" y="175.6" class="st1" width="583.5" height="300.6"/>
</g>
<g>
	<defs>
		<rect id="SVGID_7_" x="48.5" y="187.9" width="556.7" height="276"/>
	</defs>
	<clipPath id="SVGID_8_">
		<use xlink:href="#SVGID_7_"  style="overflow:visible;"/>
	</clipPath>
	
		<linearGradient id="SVGID_9_" gradientUnits="userSpaceOnUse" x1="-11986.7373" y1="1398.5139" x2="-1562.344" y2="1398.5139" gradientTransform="matrix(5.339920e-002 0 0 5.415700e-002 688.5551 250.1962)">
		<stop  offset="0" style="stop-color:#FDE100"/>
		<stop  offset="0.4045" style="stop-color:#FFFFFF"/>
		<stop  offset="1" style="stop-color:#FDE100"/>
	</linearGradient>
	<rect x="48.5" y="187.9" class="st2" width="556.7" height="276"/>
</g>
<g>
	<defs>
		<path id="SVGID_10_" d="M257.7,271.6l-21.3,6.6l-24.6,6.6l-23.3,12.4l-18.1,9.2l-17.4,5.3l-27.1,11.8l-14.9,7.2l-20,4.6l-21.3,1.3
			H55.4v121.2h542.8V307.3l-7.5-3.1l-3.2-3.1l-10-9.9l-14.9-3.9h-12.9h-12.3l-12.9,2.6l-18.7,5.9h-16.1l-15.5-2.7l-18.1-6.6h-11.6
			l-16.1,3.9l-14.9,5.9l-12.3,4.6h-13.6h-16.8l-12.9-4l-7.1-7.2l-9.1-4.6l-11.6-6.6h-12.9h-14.9c0,0-5.8,2.7-8.4,0
			c-2.6-2.6-6.8-6.9-6.8-6.9l-15.2-1L257.7,271.6z"/>
	</defs>
	<clipPath id="SVGID_11_">
		<use xlink:href="#SVGID_10_"  style="overflow:visible;"/>
	</clipPath>
	
		<linearGradient id="SVGID_12_" gradientUnits="userSpaceOnUse" x1="-6774.7471" y1="1004.3441" x2="-6774.7471" y2="3854.2139" gradientTransform="matrix(5.339920e-002 0 0 5.415700e-002 688.5551 250.1962)">
		<stop  offset="0" style="stop-color:#C6C0DA"/>
		<stop  offset="1" style="stop-color:#9C92B8"/>
	</linearGradient>
	<rect x="55.4" y="271" class="st3" width="542.8" height="186.8"/>
</g>
<g>
	<defs>
		<path id="SVGID_13_" d="M55.4,194.2v145h9.5l21.7-1.3l20.3-4.5l15.1-7.2l27.6-11.7l17.7-5.2l18.4-9.1l23.6-12.4l25-6.5l21.7-6.5
			l14.4-0.6l15.4,1c0,0,4.3,4.2,6.9,6.8c2.6,2.6,8.5,0,8.5,0h15.1h13.1l11.8,6.5l9.2,4.6l7.2,7.2l13.1,3.9h17.1h13.8l12.5-4.6
			l15.1-5.9l16.4-3.9h11.8l18.4,6.5l15.8,2.7h16.4L527,293l13.1-2.6h12.5h13.1l14.7,3.8l10.2,10.1l7.5,3.1v-0.2v-2.9v-110H55.4z"/>
	</defs>
	<clipPath id="SVGID_14_">
		<use xlink:href="#SVGID_13_"  style="overflow:visible;"/>
	</clipPath>
	
		<linearGradient id="SVGID_15_" gradientUnits="userSpaceOnUse" x1="-6774.7471" y1="-1016.3683" x2="-6774.7471" y2="980.497" gradientTransform="matrix(5.339920e-002 0 0 5.415700e-002 688.5551 250.1962)">
		<stop  offset="0" style="stop-color:#9C92B8"/>
		<stop  offset="9.260149e-002" style="stop-color:#A194B7"/>
		<stop  offset="0.1979" style="stop-color:#AE98B5"/>
		<stop  offset="0.3094" style="stop-color:#C5A0B0"/>
		<stop  offset="0.4245" style="stop-color:#E5ABAA"/>
		<stop  offset="0.4775" style="stop-color:#F6B1A7"/>
		<stop  offset="1" style="stop-color:#FDF100"/>
	</linearGradient>
	<rect x="55.4" y="194.2" class="st4" width="542.8" height="145"/>
</g>
<polygon class="st5" points="67.9,194.2 116.5,194.1 188,298 176.4,304.8 "/>
<polygon class="st5" points="295,282.9 293.9,282.7 293,282.2 292.1,281.3 290.9,280.2 289.6,278.9 289.7,278.8 290.2,278.5 
	291.3,277.6 397.1,194.2 428.1,194.2 301.3,281.8 301.2,281.9 300.5,282.2 299.2,282.6 297.7,282.9 296.4,283.1 "/>
<polygon class="st5" points="261.6,194.2 295.3,194.2 419.4,297.4 406.4,302.3 "/>
<polygon class="st5" points="349.2,194.2 384.1,194.2 453.6,289.8 445.3,289.8 439.6,291.2 "/>
<polygon class="st5" points="475.4,296.2 469.6,294.1 568.1,194.2 593.6,194.2 481.7,297.2 "/>
<g>
	<path class="st6" d="M55.4,395.6l5.2,4.5l5.6,5.7l2.6-2.6v-3.9v-3.4c0,0,4.4,0.9,5.3,0c0.9-0.9,3.5-0.5,4.9-1.8
		c1.4-1.4,1.4-2.8,1.4-2.8l2.9-4.9l7.6-17.6l16.4-16.7l6.7-15.4l10.9-11.6c12.7-4.7,14.5-6.3,14.5-6.3c2.4,0,10.3-4.3,10.3-4.3
		l7.9-1.8l8.3,0.9l5,4.6v10.5l-12.5,11.7l-6.5,6.6l-2,15.9l2.1,10.5l1.8,12.4l-1.5,6.2l-11.6,2.8l-9.1,3.1l-9.7,6.8l-7.9,8l-8.5,2.2
		l-7.3,3.1l-6.4,3.1c0,0-7,4-7,6.8c0,2.8-8.5,7.1-8.5,7.1l-10,5.9c0,0-0.9,4-1.8,4.9c-0.9,0.9-9,12.2-9,12.2V395.6z"/>
	<path class="st6" d="M159.4,457l4-4l10.9-3.7l10-2.5h21.3c0,0-1.1-4.5,0-5.6c1.1-1.1-2.9-5.1-2.9-5.1l-4.1-5.1l-3.1-6.5v-8l6.7-6.8
		l10.3-2.2l9.4-2.5h10.3l10.1-2.8l7.6-3.7l9.4-2.8l11.6-6.2l7.9-4l6.7-4.3l5.5-5.6l-5.5,9.9l-5.6,5.7l-7.8,6.6l-13.7,5.2l-7.3,4.6
		l-7.1,7.3l-0.8,6.3l-5.5,5.5l-2.4,5.2l2.1,5.9l3.5,3.5l5.6,2.9v4l-3.2,3.2l-5.6,2.3l-6.1,3.4h-73.3L159.4,457z"/>
	<path class="st6" d="M426.3,399l-21.4-3h-8.6h-9.9l-11.5-5.3l-9.9-4l-7.9-5l-3.6-7l-1.9-3.9l-0.2-39.3l0.3-10.2l-3-3.1l-1.5-5.6
		v-13l-6.4-8l-7.3-4.3l-4-5.4h-11.2h-16.1l-9.1,0.3l-7.2-7.1l-6.2-0.4l-9.2-0.6l-0.8,3.7l0.6,8l6.4,5.2l6.1,5.9
		c0,0,8.8,4.9,13.7,4.9c4.9,0,11.9,5.9,11.9,5.9l8.2,7.4l7,9.9l5.2,5.2l4.6,11.1l-1.2,7.7l-2.4,12.3v8.7v8c0,0-0.6,9.9-1.7,11
		c-1.1,1.1-7.8,7.9-7.8,7.9s-3.3,8.6-5.8,8.6s-5.3,9.4-5.3,9.4l-5.6,5.7l-1.8,5.9l1.5,8.3v4.6l3.7,0.9l4-4l5.8-1.5v-10.2l0.6-7.7
		l4.9-7.4l7.3-4.6l8.2-5.2c0,0,5.5-1.5,7.3-1.5l8,5.8l14.3,11.8l5.9,5l8,3.9l13.2,6.7l6.1,11.5h17.8l23.4-7c0,0,2.3-14,2.3-16
		c0-2-5.1-13.9-5.1-13.9L426.3,399z"/>
	<path class="st6" d="M592.7,392.5c-1.2,0-8.2-3.4-8.2-3.4l-4.4-4.5l-2.9-6c0,0-0.9-3.7-0.9-5.9v-13.6l1.2-9.6l2.7-8.3l3.6-9.6
		v-10.5v-8.6l-1.8-4.9l-3.6-2.5v11.4l-3,3.1l-4.4,4.5l-9.3,12.2l-3.6,33l-13.4,9h-4.9l0-0.3l-9-18.4l-5.9-6l-4.3-12.4l-2.3-14.4
		l-8.6-5.7l-9.9,2.3l-1.7,5.7l3.3,7.7l5.9,6l7.8,7.8l1.8,12.8v6.7l2,10.7l3.8,3.8l9.8,11.7l3.5-4.1c0.8,2.4,1.5,4.4,1.5,4.4l11.6,9
		l16.4,8l11.7,11.9l2.6,6.9l9.1,5.2l4.1,4.2l2.9,4.5l2.4-0.3v-51.9C598.2,394.4,593.9,392.5,592.7,392.5"/>
</g>
<text transform="matrix(0.9848 -0.1736 0.1711 0.9988 409.972 440.0004)" class="st7 st8 st9">v</text>
<text transform="matrix(0.9848 -0.1736 0.1711 0.9988 443.4279 434.1201)" class="st7 st8 st9">i</text>
<text transform="matrix(0.9848 -0.1736 0.1711 0.9988 465.3556 430.2556)" class="st7 st8 st9">d</text>
<text transform="matrix(0.9848 -0.1736 0.1711 0.9988 501.2555 423.9288)" class="st7 st8 st9">e</text>
<text transform="matrix(0.9848 -0.1736 0.1711 0.9988 533.7854 418.1958)" class="st7 st8 st9">o</text>
<g>
	<path class="st5" d="M101.2,321h14.5v22.2h15.8V321H146v63.3h-14.5v-25.6h-15.8v25.6h-14.5V321z"/>
</g>
<polygon class="st10" points="98.8,384.3 113.2,384.3 113.2,358.7 129,358.7 129,384.3 143.6,384.3 143.6,321 129,321 129,343.1 
	113.2,343.1 113.2,321 98.8,321 "/>
<g>
	<path class="st5" d="M149.1,350.7c0-10.3,2.1-18.4,6.4-24.1c4.2-5.8,10.2-8.6,17.8-8.6c7.8,0,13.8,2.8,18,8.5
		c4.2,5.7,6.3,13.6,6.3,23.8c0,7.4-0.9,13.5-2.8,18.2c-1.8,4.7-4.5,8.4-8,11.1c-3.5,2.6-7.8,3.9-13,3.9c-5.3,0-9.7-1.1-13.1-3.4
		c-3.5-2.3-6.3-5.9-8.4-10.8C150.2,364.3,149.1,358.1,149.1,350.7z M163.6,350.8c0,6.4,0.9,11,2.6,13.8s4.1,4.2,7.2,4.2
		c3.1,0,5.5-1.4,7.2-4.1c1.7-2.7,2.5-7.6,2.5-14.7c0-6-0.9-10.3-2.7-13.1c-1.8-2.8-4.2-4.1-7.2-4.1c-2.9,0-5.3,1.4-7,4.2
		C164.5,339.7,163.6,344.4,163.6,350.8z"/>
</g>
<g>
	<path class="st10" d="M163.8,337c1.8-2.8,4.1-4.2,7-4.2c3,0,5.5,1.4,7.2,4.1c1.8,2.7,2.7,7.1,2.7,13.1c0,7.1-0.9,12-2.6,14.7
		c-1.7,2.7-4.1,4.1-7.2,4.1c-3,0-5.4-1.4-7.2-4.2c-1.8-2.8-2.6-7.4-2.6-13.8C161.1,344.4,162,339.7,163.8,337z M149.9,369.2
		c2.2,4.9,5,8.5,8.4,10.8c3.5,2.3,7.8,3.4,13.1,3.4c5.2,0,9.5-1.3,13-4c3.5-2.6,6.2-6.3,8-11.1c1.8-4.7,2.8-10.8,2.8-18.2
		c0-10.2-2.1-18.1-6.3-23.8c-4.2-5.7-10.2-8.5-18-8.5c-7.6,0-13.6,2.9-17.8,8.6c-4.3,5.8-6.4,13.8-6.4,24.1
		C146.7,358.1,147.7,364.3,149.9,369.2z"/>
</g>
<g>
	<path class="st5" d="M203.9,315h14.5v47.7h22.6v15.6h-37.1V315z"/>
</g>
<polygon class="st10" points="201.4,378.3 238.5,378.3 238.5,362.7 215.9,362.7 215.9,315 201.4,315 "/>
<g>
	<path class="st5" d="M256.2,311.1h14.5v47.7h22.6v15.6h-37.1V311.1z"/>
</g>
<polygon class="st10" points="253.8,374.4 290.8,374.4 290.8,358.8 268.2,358.8 268.2,311.1 253.8,311.1 "/>
<g>
	<path class="st5" d="M286.4,309.2h16.1l9.4,21.4l9.5-21.4h16L319.1,346v26.5h-14.5V346L286.4,309.2z"/>
</g>
<polygon class="st10" points="302.2,346 302.2,372.5 316.7,372.5 316.7,346 334.9,309.2 318.9,309.2 309.5,330.5 300,309.2 
	284,309.2 "/>
<g>
	<path class="st5" d="M345.4,319.9h13.8l5,35.5l7.2-35.5H385l7.3,35.4l5-35.4h13.7l-10.3,63.3h-14.2l-8.2-39.9l-8.2,39.9h-14.2
		L345.4,319.9z"/>
</g>
<polygon class="st10" points="353.4,383.2 367.6,383.2 375.8,343.4 384,383.2 398.2,383.2 408.5,319.9 394.8,319.9 389.9,355.3 
	382.6,319.9 368.9,319.9 361.7,355.4 356.7,319.9 343,319.9 "/>
<g>
	<path class="st5" d="M417.2,345.2c0-10.3,2.1-18.4,6.4-24.1c4.2-5.8,10.2-8.6,17.8-8.6c7.8,0,13.8,2.8,18,8.5
		c4.2,5.7,6.3,13.6,6.3,23.8c0,7.4-0.9,13.5-2.8,18.2c-1.8,4.7-4.5,8.4-8,11.1c-3.5,2.6-7.8,3.9-13,3.9c-5.3,0-9.7-1.1-13.1-3.4
		c-3.5-2.3-6.3-5.9-8.4-10.8C418.3,358.8,417.2,352.6,417.2,345.2z M431.7,345.3c0,6.4,0.9,11,2.6,13.8c1.8,2.8,4.1,4.2,7.2,4.2
		c3.1,0,5.5-1.4,7.2-4.1c1.7-2.7,2.5-7.6,2.5-14.7c0-6-0.9-10.3-2.7-13.1c-1.8-2.8-4.2-4.1-7.2-4.1c-2.9,0-5.3,1.4-7,4.2
		C432.6,334.3,431.7,338.9,431.7,345.3z"/>
</g>
<g>
	<path class="st10" d="M434.3,331.5c1.8-2.8,4.1-4.2,7-4.2c3,0,5.5,1.4,7.2,4.1c1.8,2.7,2.7,7.1,2.7,13.1c0,7.1-0.9,12-2.6,14.7
		c-1.7,2.7-4.1,4.1-7.2,4.1c-3,0-5.4-1.4-7.2-4.2c-1.8-2.8-2.6-7.4-2.6-13.8C431.7,338.9,432.6,334.3,434.3,331.5z M420.4,363.7
		c2.2,4.9,5,8.5,8.4,10.8c3.5,2.3,7.8,3.4,13.1,3.4c5.2,0,9.5-1.3,13-4c3.5-2.6,6.2-6.3,8-11.1c1.8-4.7,2.8-10.8,2.8-18.2
		c0-10.2-2.1-18.1-6.3-23.8c-4.2-5.7-10.2-8.5-18-8.5c-7.6,0-13.6,2.9-17.8,8.6c-4.3,5.8-6.4,13.8-6.4,24.1
		C417.2,352.6,418.3,358.8,420.4,363.7z"/>
</g>
<g>
	<path class="st5" d="M471,341.8c0-10.3,2.1-18.4,6.4-24.1c4.2-5.8,10.2-8.6,17.8-8.6c7.8,0,13.8,2.8,18,8.5
		c4.2,5.7,6.3,13.6,6.3,23.8c0,7.4-0.9,13.5-2.8,18.2s-4.5,8.4-8,11.1c-3.5,2.6-7.8,3.9-13,3.9c-5.3,0-9.7-1.1-13.1-3.4
		c-3.5-2.3-6.3-5.9-8.4-10.8C472.1,355.4,471,349.2,471,341.8z M485.5,341.9c0,6.4,0.9,11,2.6,13.8c1.8,2.8,4.1,4.2,7.2,4.2
		c3.1,0,5.5-1.4,7.2-4.1c1.7-2.7,2.5-7.6,2.5-14.7c0-6-0.9-10.3-2.7-13.1c-1.8-2.8-4.2-4.1-7.2-4.1c-2.9,0-5.3,1.4-7,4.2
		C486.4,330.8,485.5,335.4,485.5,341.9z"/>
</g>
<g>
	<path class="st10" d="M488.1,328c1.8-2.8,4.1-4.2,7-4.2c3,0,5.5,1.4,7.2,4.1c1.8,2.7,2.7,7.1,2.7,13.1c0,7.1-0.9,12-2.6,14.7
		c-1.7,2.7-4.1,4.1-7.2,4.1c-3,0-5.4-1.4-7.2-4.2c-1.8-2.8-2.6-7.4-2.6-13.8C485.5,335.4,486.4,330.8,488.1,328z M474.2,360.3
		c2.2,4.9,5,8.5,8.4,10.8c3.5,2.3,7.8,3.4,13.1,3.4c5.2,0,9.5-1.3,13-4c3.5-2.6,6.2-6.3,8-11.1c1.8-4.7,2.8-10.8,2.8-18.2
		c0-10.2-2.1-18.1-6.3-23.8c-4.2-5.7-10.2-8.5-18-8.5c-7.6,0-13.6,2.9-17.8,8.6c-4.3,5.8-6.4,13.8-6.4,24.1
		C471,349.2,472.1,355.4,474.2,360.3z"/>
</g>
<g>
	<path class="st5" d="M526.4,301.2h21.5c4.2,0,7.7,0.8,10.3,2.3c2.6,1.6,4.8,3.8,6.5,6.7c1.7,2.9,2.9,6.3,3.7,10.2
		c0.8,3.9,1.2,7.9,1.2,12.3c0,6.8-0.6,12-1.7,15.7c-1.1,3.7-2.7,6.9-4.7,9.4c-2,2.5-4.2,4.2-6.5,5c-3.2,1.1-6,1.7-8.6,1.7h-21.5
		V301.2z M540.8,315.6v34.6h3.5c3,0,5.2-0.4,6.5-1.4c1.3-0.9,2.3-2.5,3-4.8c0.7-2.3,1.1-5.9,1.1-11c0-6.7-0.8-11.3-2.4-13.8
		c-1.6-2.5-4.3-3.7-8.1-3.7H540.8z"/>
</g>
<g>
	<path class="st10" d="M544.4,315.6c3.7,0,6.4,1.2,8,3.7c1.6,2.5,2.4,7.1,2.4,13.8c0,5.1-0.4,8.7-1.1,11c-0.7,2.3-1.7,3.8-3,4.7
		c-1.3,0.9-3.4,1.4-6.5,1.4h-3.6v-34.6H544.4z M526.3,364.6h21.5c2.6,0,5.5-0.6,8.6-1.7c2.3-0.8,4.5-2.5,6.5-5
		c2-2.5,3.6-5.6,4.7-9.4c1.1-3.7,1.7-9,1.7-15.7c0-4.3-0.4-8.4-1.1-12.3c-0.8-3.8-2-7.2-3.7-10.1c-1.7-2.9-3.9-5.2-6.5-6.7
		c-2.6-1.5-6-2.3-10.3-2.3h-21.5V364.6z"/>
</g>
</svg>
